<svg width="1920" height="727" viewBox="0 0 1920 727" fill="none" xmlns="http://www.w3.org/2000/svg">
<mask id="mask0_317_1032" style="mask-type:alpha" maskUnits="userSpaceOnUse" x="0" y="0" width="1920" height="727">
<rect width="1920" height="727" fill="#D9D9D9"/>
</mask>
<g mask="url(#mask0_317_1032)">
<path opacity="0.2" fill-rule="evenodd" clip-rule="evenodd" d="M1079.04 -436.527L1102.83 -430.457L1024.3 -253.925L1867.06 -24.1935L1858.56 -6.30588L1016.28 -235.905L898.372 29.1439L1454.05 408.155L1951.89 242.204L1962 259.604L1712.2 342.873V714.759L1814.46 726.283L1810.76 745.087L1142.62 669.784L895.396 1110.12L872.295 1102.68L1116.96 666.893L835.38 635.157L179.778 853.698L169.666 836.298L289.921 796.212L554.239 145.072L-10.6326 604.334L-29 591.376L249.433 365L162.258 -194.741L187.186 -196.968L271.868 346.76L753.019 -44.4346L354.57 -317.126L371.4 -331.231L779.303 -52.0695L878.05 15.283L1079.04 -436.527ZM771.659 -31.6986L593.437 113.203L490.354 367.145L1246.35 477.392L1428.86 416.554L771.659 -31.6986ZM1205.95 490.86L482.934 385.423L320.292 786.088L1205.95 490.86ZM878.47 620.793L1687.1 711.93V351.241L878.47 620.793Z" fill="#CBCED3"/>
</g>
</svg>
